<?xml version="1.0" encoding="UTF-8" standalone="no"?>
<!-- Created with Inkscape (http://www.inkscape.org/) -->

<svg
   xmlns:dc="http://purl.org/dc/elements/1.1/"
   xmlns:cc="http://creativecommons.org/ns#"
   xmlns:rdf="http://www.w3.org/1999/02/22-rdf-syntax-ns#"
   xmlns:svg="http://www.w3.org/2000/svg"
   xmlns="http://www.w3.org/2000/svg"
   xmlns:sodipodi="http://sodipodi.sourceforge.net/DTD/sodipodi-0.dtd"
   xmlns:inkscape="http://www.inkscape.org/namespaces/inkscape"
   width="435.17267mm"
   height="54.000004mm"
   viewBox="0 0 435.17267 54.000004"
   version="1.1"
   id="svg8"
   inkscape:version="0.92.4 5da689c313, 2019-01-14"
   sodipodi:docname="drawing.svg">
  <defs
     id="defs2" />
  <sodipodi:namedview
     id="base"
     pagecolor="#ffffff"
     bordercolor="#666666"
     borderopacity="1"
     inkscape:pageopacity="0"
     inkscape:pageshadow="2"
     inkscape:zoom="0.1767767"
     inkscape:cx="-90.050588"
     inkscape:cy="473.80575"
     inkscape:document-units="mm"
     inkscape:current-layer="flowRoot4541"
     showgrid="false"
     showguides="true"
     inkscape:guide-bbox="true"
     inkscape:pagecheckerboard="true"
     inkscape:window-width="1920"
     inkscape:window-height="1015"
     inkscape:window-x="0"
     inkscape:window-y="28"
     inkscape:window-maximized="1">
    <sodipodi:guide
       position="40.36675,27.031309"
       orientation="0,1"
       id="guide4549"
       inkscape:locked="false" />
  </sodipodi:namedview>
  <metadata
     id="metadata5">
    <rdf:RDF>
      <cc:Work
         rdf:about="">
        <dc:format>image/svg+xml</dc:format>
        <dc:type
           rdf:resource="http://purl.org/dc/dcmitype/StillImage" />
        <dc:title></dc:title>
      </cc:Work>
    </rdf:RDF>
  </metadata>
  <g
     inkscape:label="Layer 1"
     inkscape:groupmode="layer"
     id="layer1"
     transform="translate(-17.300034,-86.21843)">
    <g
       aria-label="control tower"
       transform="matrix(0.26458333,0,0,0.26458333,7.505554,-8.3051594)"
       style="font-style:normal;font-variant:normal;font-weight:bold;font-stretch:normal;font-size:192px;line-height:1.25;font-family:'Roboto Mono';-inkscape-font-specification:'Roboto Mono Bold';letter-spacing:0px;word-spacing:0px;fill:#ffffff;fill-opacity:1;stroke:none"
       id="flowRoot4541">
      <g
         id="g6070">
        <g
           id="g4566"
           style=""
           transform="matrix(3.7795276,0,0,3.7795276,-28.367449,31.38958)">
          <rect
             style="opacity:1;fill:#ffffff;fill-opacity:1;stroke:none;stroke-width:0.80009997;stroke-linejoin:miter;stroke-miterlimit:10;stroke-dasharray:none;stroke-dashoffset:0;stroke-opacity:1"
             id="rect4522"
             width="54"
             height="54"
             x="17.300034"
             y="86.21843" />
          <rect
             style="opacity:1;fill:#ff7900;fill-opacity:1;stroke:none;stroke-width:0.80010003;stroke-linejoin:miter;stroke-miterlimit:10;stroke-dasharray:none;stroke-dashoffset:0;stroke-opacity:1"
             id="rect4524"
             width="27"
             height="27"
             x="44.300034"
             y="86.21843" />
          <rect
             style="opacity:1;fill:#ff7900;fill-opacity:1;stroke:none;stroke-width:0.80010003;stroke-linejoin:miter;stroke-miterlimit:10;stroke-dasharray:none;stroke-dashoffset:0;stroke-opacity:1"
             id="rect4524-3"
             width="27.000002"
             height="27.000002"
             x="17.300034"
             y="113.21843" />
        </g>
        <path
           id="path4707"
           style="font-style:normal;font-variant:normal;font-weight:bold;font-stretch:normal;font-size:204px;font-family:'Roboto Mono';-inkscape-font-specification:'Roboto Mono Bold';letter-spacing:-10px;word-spacing:-65px;fill:#000000;fill-opacity:1"
           d="m 347.82227,492.63477 q 4.08398,0 7.76953,-1.19532 3.68554,-1.19531 6.47461,-3.38672 2.78906,-2.1914 4.2832,-5.27929 1.59375,-3.08789 1.39453,-6.87305 h 26.09766 q 0.19922,8.36719 -3.48633,15.53906 -3.58594,7.17188 -9.86133,12.35157 -6.27539,5.17968 -14.64258,8.16796 -8.26758,2.88868 -17.53125,2.88868 -12.55078,0 -22.01367,-4.1836 -9.46289,-4.2832 -15.83789,-11.65429 -6.27539,-7.3711 -9.5625,-17.23243 -3.1875,-9.96093 -3.1875,-21.3164 v -2.98828 q 0,-11.35547 3.1875,-21.2168 3.1875,-9.96094 9.5625,-17.33203 6.375,-7.3711 15.73828,-11.6543 9.46289,-4.2832 21.91406,-4.2832 9.96094,0 18.42774,2.98828 8.46679,2.98828 14.54297,8.4668 6.17578,5.3789 9.5625,13.14843 3.38672,7.66993 3.1875,17.23243 h -26.09766 q 0.19922,-3.98438 -1.19531,-7.57032 -1.39453,-3.58593 -4.08399,-6.17578 -2.68945,-2.58984 -6.47461,-4.08398 -3.78515,-1.59375 -8.26757,-1.59375 -6.57422,0 -10.85743,2.68945 -4.2832,2.68945 -6.87304,7.17188 -2.49024,4.48242 -3.58594,10.25976 -0.99609,5.77734 -0.99609,11.95313 v 2.98828 q 0,6.27539 0.99609,12.15234 0.99609,5.77734 3.48633,10.25977 2.58984,4.38281 6.87304,7.07226 4.38282,2.68946 11.05665,2.68946 z"
           inkscape:connector-curvature="0" />
        <path
           id="path4709"
           style="font-style:normal;font-variant:normal;font-weight:bold;font-stretch:normal;font-size:204px;font-family:'Roboto Mono';-inkscape-font-specification:'Roboto Mono Bold';letter-spacing:-10px;word-spacing:-65px;fill:#000000;fill-opacity:1"
           d="m 408.74414,457.87109 q 0,-11.7539 3.38672,-21.71484 3.38672,-10.06055 9.86133,-17.43164 6.57422,-7.37109 15.9375,-11.55469 9.46289,-4.18359 21.61523,-4.18359 12.15235,0 21.61524,4.18359 9.46289,4.1836 15.9375,11.55469 6.57421,7.37109 9.96093,17.43164 3.38672,9.96094 3.38672,21.71484 v 2.0918 q 0,11.85352 -3.38672,21.91406 -3.38672,9.96094 -9.86132,17.33203 -6.47461,7.3711 -15.9375,11.55469 -9.4629,4.08399 -21.51563,4.08399 -12.15234,0 -21.71484,-4.08399 -9.46289,-4.18359 -16.03711,-11.55469 -6.47461,-7.37109 -9.86133,-17.33203 -3.38672,-10.06054 -3.38672,-21.91406 z m 27.69141,2.0918 q 0,6.77344 1.29492,12.75 1.29492,5.87695 4.08398,10.35938 2.78907,4.38281 7.17188,6.97265 4.48242,2.58985 10.75781,2.58985 6.07617,0 10.45898,-2.58985 4.38282,-2.58984 7.07227,-6.97265 2.78906,-4.48243 4.08398,-10.35938 1.29493,-5.97656 1.29493,-12.75 v -2.0918 q 0,-6.57422 -1.29493,-12.45117 -1.29492,-5.87695 -4.08398,-10.35937 -2.68945,-4.48243 -7.07227,-7.07227 -4.38281,-2.58984 -10.6582,-2.58984 -6.17578,0 -10.55859,2.58984 -4.38281,2.58984 -7.17188,7.07227 -2.78906,4.48242 -4.08398,10.35937 -1.29492,5.87695 -1.29492,12.45117 z"
           inkscape:connector-curvature="0" />
        <path
           id="path4711"
           style="font-style:normal;font-variant:normal;font-weight:bold;font-stretch:normal;font-size:204px;font-family:'Roboto Mono';-inkscape-font-specification:'Roboto Mono Bold';letter-spacing:-10px;word-spacing:-65px;fill:#000000;fill-opacity:1"
           d="m 550.05078,404.97852 1.69336,14.9414 q 5.77734,-8.06836 14.04492,-12.45117 8.26758,-4.48242 18.32813,-4.48242 8.16797,0 14.9414,2.39062 6.77344,2.39063 11.6543,7.66992 4.98047,5.17969 7.66992,13.44727 2.78906,8.16797 2.78906,19.92188 v 66.33984 h -27.6914 v -65.94141 q 0,-6.375 -1.49414,-10.45898 -1.39453,-4.1836 -4.08399,-6.57422 -2.68945,-2.39063 -6.47461,-3.28711 -3.78515,-0.99609 -8.5664,-0.99609 -7.07227,0 -12.05274,2.88867 -4.98047,2.78906 -8.06836,7.76953 v 76.59961 H 524.94922 V 404.97852 Z"
           inkscape:connector-curvature="0" />
        <path
           id="path4713"
           style="font-style:normal;font-variant:normal;font-weight:bold;font-stretch:normal;font-size:204px;font-family:'Roboto Mono';-inkscape-font-specification:'Roboto Mono Bold';letter-spacing:-10px;word-spacing:-65px;fill:#000000;fill-opacity:1"
           d="m 688.16992,378.58203 v 26.39649 h 40.24219 v 20.41992 h -40.24219 v 46.31836 q 0,5.87695 1.29492,9.86132 1.39453,3.88477 3.88477,6.2754 2.49023,2.29101 5.97656,3.2871 3.58594,0.9961 7.96875,0.9961 3.1875,0 6.47461,-0.29883 3.38672,-0.29883 6.375,-0.69727 3.08789,-0.49804 5.67774,-0.99609 2.68945,-0.49805 4.58203,-0.99609 l 2.68945,19.02539 q -2.88867,1.69336 -6.77344,2.98828 -3.88476,1.19531 -8.26758,1.99219 -4.38281,0.79687 -9.16406,1.19531 -4.68164,0.49805 -9.26367,0.49805 -8.86523,0 -16.13672,-2.29102 -7.17187,-2.39062 -12.35156,-7.27148 -5.08008,-4.98047 -7.86914,-12.55079 -2.78906,-7.66992 -2.78906,-18.32812 V 425.39844 H 635.875 v -20.41992 h 24.60352 v -26.39649 z"
           inkscape:connector-curvature="0" />
        <path
           id="path4715"
           style="font-style:normal;font-variant:normal;font-weight:bold;font-stretch:normal;font-size:204px;font-family:'Roboto Mono';-inkscape-font-specification:'Roboto Mono Bold';letter-spacing:-10px;word-spacing:-65px;fill:#000000;fill-opacity:1"
           d="m 827.18555,402.98633 q 6.27539,0 11.55468,0.89648 5.37891,0.79688 8.66602,1.79297 l -4.08398,27.5918 q -5.47852,-1.29492 -11.25586,-1.89258 -5.67774,-0.69727 -10.85743,-0.69727 -11.65429,0 -18.72656,4.48243 -6.97265,4.48242 -10.45898,12.84961 v 64.74609 H 764.33203 V 404.97852 h 25.79883 l 1.29492,17.63085 q 6.57422,-9.16406 15.73828,-14.34375 9.16406,-5.27929 20.02149,-5.27929 z"
           inkscape:connector-curvature="0" />
        <path
           id="path4717"
           style="font-style:normal;font-variant:normal;font-weight:bold;font-stretch:normal;font-size:204px;font-family:'Roboto Mono';-inkscape-font-specification:'Roboto Mono Bold';letter-spacing:-10px;word-spacing:-65px;fill:#000000;fill-opacity:1"
           d="m 858.42383,457.87109 q 0,-11.7539 3.38672,-21.71484 3.38672,-10.06055 9.86132,-17.43164 6.57422,-7.37109 15.9375,-11.55469 9.4629,-4.18359 21.61524,-4.18359 12.15234,0 21.61523,4.18359 9.46289,4.1836 15.9375,11.55469 6.57422,7.37109 9.96094,17.43164 3.38672,9.96094 3.38672,21.71484 v 2.0918 q 0,11.85352 -3.38672,21.91406 -3.38672,9.96094 -9.86133,17.33203 -6.47461,7.3711 -15.9375,11.55469 -9.46289,4.08399 -21.51562,4.08399 -12.15235,0 -21.71485,-4.08399 -9.46289,-4.18359 -16.03711,-11.55469 -6.4746,-7.37109 -9.86132,-17.33203 -3.38672,-10.06054 -3.38672,-21.91406 z m 27.6914,2.0918 q 0,6.77344 1.29493,12.75 1.29492,5.87695 4.08398,10.35938 2.78906,4.38281 7.17188,6.97265 4.48242,2.58985 10.75781,2.58985 6.07617,0 10.45898,-2.58985 4.38281,-2.58984 7.07227,-6.97265 2.78906,-4.48243 4.08398,-10.35938 1.29492,-5.97656 1.29492,-12.75 v -2.0918 q 0,-6.57422 -1.29492,-12.45117 -1.29492,-5.87695 -4.08398,-10.35937 -2.68946,-4.48243 -7.07227,-7.07227 -4.38281,-2.58984 -10.6582,-2.58984 -6.17578,0 -10.55859,2.58984 -4.38282,2.58984 -7.17188,7.07227 -2.78906,4.48242 -4.08398,10.35937 -1.29493,5.87695 -1.29493,12.45117 z"
           inkscape:connector-curvature="0" />
        <path
           id="path4719"
           style="font-style:normal;font-variant:normal;font-weight:bold;font-stretch:normal;font-size:204px;font-family:'Roboto Mono';-inkscape-font-specification:'Roboto Mono Bold';letter-spacing:-10px;word-spacing:-65px;fill:#000000;fill-opacity:1"
           d="m 980.40625,359.75586 h 60.26365 v 130.48828 h 30.8789 v 22.51172 h -91.14255 v -22.51172 h 32.27345 V 382.36719 h -32.27345 z"
           inkscape:connector-curvature="0" />
        <path
           id="path4721"
           style="font-style:normal;font-variant:normal;font-weight:bold;font-stretch:normal;font-size:204px;font-family:'Roboto Mono';-inkscape-font-specification:'Roboto Mono Bold';letter-spacing:-10px;word-spacing:-65px;fill:#000000;fill-opacity:1"
           d="m 1185.2695,378.58203 v 26.39649 h 40.2422 v 20.41992 h -40.2422 v 46.31836 q 0,5.87695 1.295,9.86132 1.3945,3.88477 3.8847,6.2754 2.4903,2.29101 5.9766,3.2871 3.5859,0.9961 7.9687,0.9961 3.1875,0 6.4746,-0.29883 3.3868,-0.29883 6.375,-0.69727 3.0879,-0.49804 5.6778,-0.99609 2.6894,-0.49805 4.582,-0.99609 l 2.6895,19.02539 q -2.8887,1.69336 -6.7735,2.98828 -3.8847,1.19531 -8.2676,1.99219 -4.3828,0.79687 -9.164,1.19531 -4.6817,0.49805 -9.2637,0.49805 -8.8652,0 -16.1367,-2.29102 -7.1719,-2.39062 -12.3516,-7.27148 -5.08,-4.98047 -7.8691,-12.55079 -2.7891,-7.66992 -2.7891,-18.32812 v -49.00781 h -24.6035 v -20.41992 h 24.6035 v -26.39649 z"
           inkscape:connector-curvature="0" />
        <path
           id="path4723"
           style="font-style:normal;font-variant:normal;font-weight:bold;font-stretch:normal;font-size:204px;font-family:'Roboto Mono';-inkscape-font-specification:'Roboto Mono Bold';letter-spacing:-10px;word-spacing:-65px;fill:#000000;fill-opacity:1"
           d="m 1243.1035,457.87109 q 0,-11.7539 3.3867,-21.71484 3.3868,-10.06055 9.8614,-17.43164 6.5742,-7.37109 15.9375,-11.55469 9.4629,-4.18359 21.6152,-4.18359 12.1523,0 21.6152,4.18359 9.4629,4.1836 15.9375,11.55469 6.5743,7.37109 9.961,17.43164 3.3867,9.96094 3.3867,21.71484 v 2.0918 q 0,11.85352 -3.3867,21.91406 -3.3867,9.96094 -9.8614,17.33203 -6.4746,7.3711 -15.9375,11.55469 -9.4628,4.08399 -21.5156,4.08399 -12.1523,0 -21.7148,-4.08399 -9.4629,-4.18359 -16.0371,-11.55469 -6.4746,-7.37109 -9.8614,-17.33203 -3.3867,-10.06054 -3.3867,-21.91406 z m 27.6914,2.0918 q 0,6.77344 1.2949,12.75 1.295,5.87695 4.084,10.35938 2.7891,4.38281 7.1719,6.97265 4.4824,2.58985 10.7578,2.58985 6.0762,0 10.459,-2.58985 4.3828,-2.58984 7.0723,-6.97265 2.789,-4.48243 4.084,-10.35938 1.2949,-5.97656 1.2949,-12.75 v -2.0918 q 0,-6.57422 -1.2949,-12.45117 -1.295,-5.87695 -4.084,-10.35937 -2.6895,-4.48243 -7.0723,-7.07227 -4.3828,-2.58984 -10.6582,-2.58984 -6.1758,0 -10.5586,2.58984 -4.3828,2.58984 -7.1719,7.07227 -2.789,4.48242 -4.084,10.35937 -1.2949,5.87695 -1.2949,12.45117 z"
           inkscape:connector-curvature="0" />
        <path
           id="path4725"
           style="font-style:normal;font-variant:normal;font-weight:bold;font-stretch:normal;font-size:204px;font-family:'Roboto Mono';-inkscape-font-specification:'Roboto Mono Bold';letter-spacing:-10px;word-spacing:-65px;fill:#000000;fill-opacity:1"
           d="m 1428.2383,478.98828 9.3633,-74.00976 h 25.4004 l -19.3243,107.77734 h -24.3047 l -14.1445,-68.53125 -13.6465,68.53125 h -24.3047 l -19.3242,-107.77734 h 25.3008 l 9.3633,74.30859 13.5469,-74.30859 h 18.5273 z"
           inkscape:connector-curvature="0" />
        <path
           id="path4727"
           style="font-style:normal;font-variant:normal;font-weight:bold;font-stretch:normal;font-size:204px;font-family:'Roboto Mono';-inkscape-font-specification:'Roboto Mono Bold';letter-spacing:-10px;word-spacing:-65px;fill:#000000;fill-opacity:1"
           d="m 1524.0234,514.74805 q -12.4511,0 -22.6113,-4.08399 -10.1601,-4.08398 -17.4316,-11.05664 -7.2715,-7.07226 -11.2559,-16.53515 -3.8848,-9.5625 -3.8848,-20.41993 v -3.98437 q 0,-12.35156 3.8848,-22.51172 3.8848,-10.25977 10.8574,-17.63086 6.9727,-7.37109 16.5352,-11.45508 9.5625,-4.08398 20.8183,-4.08398 11.6543,0 20.7188,3.88476 9.1641,3.78516 15.4395,10.75782 6.375,6.97265 9.6621,16.83398 3.2871,9.76172 3.2871,21.61523 v 11.75391 h -73.1133 q 0.7969,5.47852 3.1875,10.06055 2.4902,4.48242 6.2754,7.76953 3.7851,3.28711 8.666,5.08008 4.8809,1.79297 10.6582,1.79297 4.084,0 8.0684,-0.79688 4.0839,-0.79687 7.7695,-2.29101 3.6855,-1.59375 6.873,-3.88477 3.1875,-2.29102 5.5782,-5.37891 l 13.8457,14.94141 q -2.5899,3.68555 -6.7735,7.27148 -4.084,3.48633 -9.7617,6.27539 -5.5781,2.68946 -12.4512,4.38282 -6.873,1.69336 -14.8418,1.69336 z m -3.2871,-89.34961 q -4.6816,0 -8.5664,1.69336 -3.8847,1.59375 -6.873,4.68164 -2.8887,3.08789 -4.8809,7.37109 -1.9922,4.2832 -2.9883,9.5625 h 45.4219 v -2.19141 q -0.1992,-4.38281 -1.6933,-8.26757 -1.4942,-3.88477 -4.2833,-6.67383 -2.789,-2.88867 -6.873,-4.48242 -3.9844,-1.69336 -9.2637,-1.69336 z"
           inkscape:connector-curvature="0" />
        <path
           id="path4729"
           style="font-style:normal;font-variant:normal;font-weight:bold;font-stretch:normal;font-size:204px;font-family:'Roboto Mono';-inkscape-font-specification:'Roboto Mono Bold';letter-spacing:-10px;word-spacing:-65px;fill:#000000;fill-opacity:1"
           d="m 1661.5449,402.98633 q 6.2754,0 11.5547,0.89648 5.3789,0.79688 8.666,1.79297 l -4.084,27.5918 q -5.4785,-1.29492 -11.2558,-1.89258 -5.6778,-0.69727 -10.8574,-0.69727 -11.6543,0 -18.7266,4.48243 -6.9727,4.48242 -10.459,12.84961 v 64.74609 h -27.6914 V 404.97852 h 25.7988 l 1.295,17.63085 q 6.5742,-9.16406 15.7382,-14.34375 9.1641,-5.27929 20.0215,-5.27929 z"
           inkscape:connector-curvature="0" />
      </g>
    </g>
  </g>
</svg>
