<?xml version="1.0" encoding="UTF-8" standalone="no"?>
<svg
   xmlns:dc="http://purl.org/dc/elements/1.1/"
   xmlns:cc="http://creativecommons.org/ns#"
   xmlns:rdf="http://www.w3.org/1999/02/22-rdf-syntax-ns#"
   xmlns:svg="http://www.w3.org/2000/svg"
   xmlns="http://www.w3.org/2000/svg"
   height="507.88501"
   width="531.88623"
   version="1.1"
   id="Capa_1"
   x="0px"
   y="0px"
   viewBox="0 0 531.88624 507.88502"
   xml:space="preserve"><metadata
     id="metadata4185"><rdf:RDF><cc:Work
         rdf:about=""><dc:format>image/svg+xml</dc:format><dc:type
           rdf:resource="http://purl.org/dc/dcmitype/StillImage" /><dc:title></dc:title></cc:Work></rdf:RDF></metadata><defs
     id="defs4183" /><g
     transform="translate(9.9996092,-2.0009951)"
     id="g5125"><rect
       id="rect3962"
       height="51.310001"
       width="23.993999"
       style="fill:#656d78"
       y="223.95399"
       x="83.983002" /><g
       id="g3966"
       style="opacity:0.2"><rect
         id="rect3964"
         height="45.987999"
         width="7.9980001"
         style="fill:#ffffff"
         y="223.95399"
         x="83.983002" /></g><g
       id="g3970"
       style="opacity:0.2"><rect
         id="rect3968"
         height="45.987999"
         width="7.9980001"
         y="223.95399"
         x="99.983002" /></g><rect
       id="rect3972"
       height="51.310001"
       width="23.993999"
       style="fill:#656d78"
       y="223.95399"
       x="403.90302" /><g
       id="g3976"
       style="opacity:0.2"><rect
         id="rect3974"
         height="45.987999"
         width="7.9980001"
         style="fill:#ffffff"
         y="223.95399"
         x="403.90302" /></g><g
       id="g3980"
       style="opacity:0.2"><rect
         id="rect3978"
         height="45.987999"
         width="7.9980001"
         y="223.95399"
         x="419.90302" /></g><rect
       id="rect3982"
       height="51.32"
       width="23.995001"
       style="fill:#656d78"
       y="175.964"
       x="147.97301" /><g
       id="g3986"
       style="opacity:0.2"><rect
         id="rect3984"
         height="45.988998"
         width="7.9990001"
         style="fill:#ffffff"
         y="175.964"
         x="147.97301" /></g><g
       id="g3990"
       style="opacity:0.2"><rect
         id="rect3988"
         height="45.988998"
         width="7.9980001"
         y="175.964"
         x="163.963" /></g><rect
       id="rect3992"
       height="51.32"
       width="23.993999"
       style="fill:#656d78"
       y="175.964"
       x="339.923" /><g
       id="g3996"
       style="opacity:0.2"><rect
         id="rect3994"
         height="45.988998"
         width="7.9980001"
         style="fill:#ffffff"
         y="175.964"
         x="339.923" /></g><g
       id="g4000"
       style="opacity:0.2"><rect
         id="rect3998"
         height="45.988998"
         width="7.9980001"
         y="175.964"
         x="355.923" /></g><path
       id="path4002"
       d="m 179.961,275.939 -39.991,15.434 -23.994,9.279 -23.994,9.279 -87.979,33.992 c 0,0 0,-17.512 7.998,-23.995 L 219.952,159.966 h 7.998 v 103.976 h -7.998 z"
       style="fill:#BDD631" /><g
       id="g4006"
       style="opacity:0.3"><path
         id="path4004"
         d="M 219.952,159.966 12.001,319.928 c -7.998,6.483 -7.998,23.995 -7.998,23.995 l 0.805,-0.312 c 0.906,-5.452 2.851,-12.169 7.193,-15.685 L 219.952,167.964 Z"
         style="fill:#ffffff" /></g><path
       id="path4008"
       d="m 395.91,300.652 -23.994,-9.279 -39.99,-15.434 -39.99,-11.997 h -7.998 V 159.966 h 7.998 l 207.95,159.962 c 7.998,6.483 7.998,23.995 7.998,23.995 l -87.979,-33.992 z"
       style="fill:#BDD631" /><path
       id="path4010"
       d="m 247.945,463.895 -83.98,23.994 c 0,0 0,-17.598 7.998,-23.994 l 61.423,-39.991 7.842,-1.679 C 234.19,389.116 227.95,344.079 227.95,311.93 V 263.942 159.966 103.98 c 0,-47.989 8.318,-87.979 27.993,-87.979 19.676,0 27.994,39.99 27.994,87.979 v 55.986 103.976 47.988 c 0,32.148 -6.241,77.186 -13.278,110.295 l 7.842,1.679 61.423,39.991 c 7.998,6.396 7.998,23.994 7.998,23.994 l -83.98,-23.994 h -7.999 z"
       style="fill:#e6e9ed" /><path
       id="path4012"
       d="m 250.694,463.895 h 5.249 C 248.906,430.778 235.948,344.079 235.948,311.93 V 263.942 159.966 103.98 c 0,-44.587 7.193,-82.219 23.994,-87.339 C 258.662,16.25 257.341,16 255.943,16 236.268,16 227.95,55.99 227.95,103.979 v 55.986 103.976 47.988 c 0,32.148 6.241,77.186 13.278,110.295 z"
       style="fill:#ffffff" /><g
       id="g4016"
       style="opacity:0.2"><path
         id="path4014"
         d="m 261.192,463.895 h -5.249 C 262.98,430.778 275.938,344.079 275.938,311.93 V 263.942 159.966 103.98 c 0,-44.587 -7.193,-82.219 -23.994,-87.339 1.281,-0.391 2.601,-0.641 3.999,-0.641 19.676,0 27.994,39.99 27.994,87.979 v 55.986 103.976 47.988 c 0,32.148 -6.241,77.186 -13.278,110.295 z" /></g><g
       id="g4022"><path
         id="path4018"
         d="m 219.952,263.942 h 7.998 v -27.47 L 5.253,333.293 c -1.211,5.632 -1.25,10.631 -1.25,10.631 l 87.979,-33.992 23.994,-9.279 23.994,-9.279 39.991,-15.434 z"
         style="fill:#656d78" /><path
         id="path4020"
         d="m 291.935,263.942 h -7.998 v -27.47 l 222.697,96.82 c 1.21,5.632 1.249,10.631 1.249,10.631 l -87.979,-33.992 -23.994,-9.279 -23.994,-9.279 -39.99,-15.434 z"
         style="fill:#656d78" /></g><g
       id="g4026"
       style="opacity:0.2"><rect
         id="rect4024"
         height="103.98"
         width="7.9980001"
         y="159.964"
         x="219.953" /></g><g
       id="g4030"
       style="opacity:0.2"><rect
         id="rect4028"
         height="103.98"
         width="7.9980001"
         y="159.964"
         x="283.93301" /></g><path
       id="path4032"
       d="m 241.775,423.904 h -8.389 l -61.423,39.991 c -7.998,6.396 -7.998,23.994 -7.998,23.994 l 83.98,-23.994 h 2.75 z"
       style="fill:#BDD631" /><g
       id="g4036"
       style="opacity:0.3"><path
         id="path4034"
         d="m 233.612,423.904 9.201,41.459 5.131,-1.468 h 2.75 c -2.054,-9.654 -8.919,-39.991 -8.919,-39.991 z" /></g><path
       id="path4038"
       d="m 270.112,423.904 h 8.389 l 61.423,39.991 c 7.998,6.396 7.998,23.994 7.998,23.994 l -83.98,-23.994 h -2.749 z"
       style="fill:#BDD631" /><g
       id="g4042"
       style="opacity:0.2"><path
         id="path4040"
         d="m 291.935,159.966 207.95,159.962 c 7.998,6.483 7.998,23.995 7.998,23.995 l -0.805,-0.312 c -0.905,-5.452 -2.851,-12.169 -7.193,-15.685 L 291.935,167.964 Z" /></g><g
       id="g4046"
       style="opacity:0.2"><path
         id="path4044"
         d="m 179.961,267.941 -39.991,15.434 -23.994,9.279 -23.994,9.279 -87.175,33.68 c -0.766,4.593 -0.805,8.311 -0.805,8.311 l 87.979,-33.992 23.994,-9.279 23.994,-9.279 39.991,-15.434 39.991,-11.997 v -7.999 z"
         style="fill:#ffffff" /></g><g
       id="g4050"
       style="opacity:0.2"><path
         id="path4048"
         d="m 331.925,267.941 39.99,15.434 23.994,9.279 23.994,9.279 87.175,33.68 c 0.766,4.593 0.805,8.311 0.805,8.311 l -87.979,-33.992 -23.994,-9.279 -23.994,-9.279 -39.99,-15.434 -39.99,-11.997 v -7.999 z" /></g><g
       id="g4054"
       style="opacity:0.3"><path
         id="path4052"
         d="m 233.612,423.904 h -0.226 l -61.423,39.991 c -7.998,6.396 -7.998,23.994 -7.998,23.994 l 0.781,-0.219 c 0.906,-5.491 2.843,-12.278 7.217,-15.777 l 61.423,-39.991 h 1.999 z"
         style="fill:#ffffff" /></g><g
       id="g4058"
       style="opacity:0.3"><path
         id="path4056"
         d="m 278.274,423.904 -9.201,41.459 -5.132,-1.468 h -2.749 c 2.054,-9.654 8.92,-39.991 8.92,-39.991 z" /></g><g
       id="g4062"
       style="opacity:0.3"><path
         id="path4060"
         d="m 278.274,423.904 h 0.227 l 61.423,39.991 c 7.998,6.396 7.998,23.994 7.998,23.994 l -0.781,-0.219 c -0.906,-5.491 -2.843,-12.278 -7.217,-15.777 l -61.423,-39.991 h -2 z" /></g><path
       style="fill:#3a3847"
       d="m 267.94,51.992 c -1.444,0 -2.835,-0.785 -3.546,-2.155 -0.023,-0.039 -3.187,-5.843 -8.451,-5.843 -5.264,0 -8.42,5.784 -8.451,5.843 -1.015,1.96 -3.444,2.71 -5.389,1.707 -1.96,-1.019 -2.726,-3.433 -1.703,-5.393 0.211,-0.414 5.39,-10.154 15.543,-10.154 10.154,0 15.332,9.74 15.543,10.154 1.023,1.96 0.258,4.374 -1.702,5.393 -0.586,0.303 -1.219,0.448 -1.844,0.448 z"
       id="path4064" /><path
       style="fill:#3a3847"
       d="m 245.383,443.977 c -1.789,0 -3.414,-1.202 -3.874,-3.015 -1.375,-5.405 -2.82,-11.45 -4.194,-17.901 -6.163,-29.018 -13.364,-75.529 -13.364,-111.131 0,-2.21 1.789,-3.999 3.999,-3.999 2.21,0 3.999,1.789 3.999,3.999 0,32.742 6.624,78.567 13.192,109.459 1.343,6.342 2.772,12.294 4.116,17.605 0.547,2.14 -0.75,4.318 -2.89,4.857 -0.328,0.087 -0.663,0.126 -0.984,0.126 z"
       id="path4066" /><path
       style="fill:#3a3847"
       d="m 227.95,107.979 c -2.21,0 -3.999,-1.789 -3.999,-3.999 0,-27.654 3.116,-91.979 31.992,-91.979 2.211,0 3.999,1.789 3.999,3.999 0,2.21 -1.788,3.999 -3.999,3.999 -14.574,0 -23.994,32.965 -23.994,83.98 0,2.211 -1.789,4 -3.999,4 z"
       id="path4068" /><path
       style="fill:#3a3847"
       d="m 4.003,347.923 c -1.601,0 -3.116,-0.969 -3.733,-2.562 -0.797,-2.054 0.234,-4.374 2.289,-5.17 l 175.966,-67.984 40.279,-12.095 c 2.109,-0.613 4.343,0.562 4.976,2.683 0.641,2.117 -0.562,4.343 -2.679,4.976 L 181.11,279.768 5.448,347.657 c -0.477,0.18 -0.969,0.266 -1.445,0.266 z"
       id="path4070" /><path
       style="fill:#3a3847"
       d="m 4.003,347.923 c -2.21,0 -3.999,-1.789 -3.999,-3.999 0,-1.984 0.266,-19.636 9.482,-27.104 1.703,-1.39 4.226,-1.124 5.624,0.594 1.39,1.719 1.125,4.233 -0.593,5.624 -5.319,4.312 -6.515,16.84 -6.515,20.886 0,2.209 -1.788,3.999 -3.999,3.999 z"
       id="path4072" /><path
       style="fill:#3a3847"
       d="m 12.001,323.928 c -1.195,0 -2.382,-0.531 -3.171,-1.562 -1.344,-1.75 -1.016,-4.265 0.734,-5.608 L 217.515,156.796 c 1.742,-1.348 4.257,-1.031 5.608,0.734 1.344,1.749 1.016,4.261 -0.734,5.608 L 14.438,323.1 c -0.726,0.563 -1.586,0.828 -2.437,0.828 z"
       id="path4074" /><path
       style="fill:#3a3847"
       d="m 83.984,260.584 c -2.21,0 -3.999,-1.789 -3.999,-3.999 v -32.633 c 0,-2.211 1.789,-3.999 3.999,-3.999 2.21,0 3.999,1.788 3.999,3.999 v 32.633 c 0,2.21 -1.789,3.999 -3.999,3.999 z"
       id="path4076" /><path
       style="fill:#3a3847"
       d="m 107.978,242.107 c -2.21,0 -3.999,-1.788 -3.999,-3.999 v -14.156 c 0,-2.211 1.789,-3.999 3.999,-3.999 2.21,0 3.999,1.788 3.999,3.999 v 14.156 c 0,2.211 -1.788,3.999 -3.999,3.999 z"
       id="path4078" /><path
       style="fill:#3a3847"
       d="M 107.978,227.951 H 83.984 c -2.21,0 -3.999,-1.789 -3.999,-3.999 0,-2.211 1.789,-3.999 3.999,-3.999 h 23.994 c 2.21,0 3.999,1.788 3.999,3.999 0,2.21 -1.788,3.999 -3.999,3.999 z"
       id="path4080" /><path
       style="fill:#3a3847"
       d="m 147.968,211.314 c -2.21,0 -3.999,-1.789 -3.999,-3.999 v -31.353 c 0,-2.21 1.789,-3.999 3.999,-3.999 2.211,0 4,1.789 4,3.999 v 31.353 c 0,2.21 -1.789,3.999 -4,3.999 z"
       id="path4082" /><path
       style="fill:#3a3847"
       d="m 171.963,179.962 h -23.995 c -2.21,0 -3.999,-1.788 -3.999,-3.999 0,-2.21 1.789,-3.999 3.999,-3.999 h 23.995 c 2.21,0 3.999,1.789 3.999,3.999 0,2.21 -1.789,3.999 -3.999,3.999 z"
       id="path4084" /><path
       style="fill:#3a3847"
       d="m 171.963,192.92 c -2.21,0 -3.999,-1.788 -3.999,-3.999 v -12.958 c 0,-2.21 1.789,-3.999 3.999,-3.999 2.21,0 3.999,1.789 3.999,3.999 v 12.958 c 0,2.211 -1.789,3.999 -3.999,3.999 z"
       id="path4086" /><path
       style="fill:#3a3847"
       d="m 91.982,321.928 c -2.21,0 -3.999,-1.789 -3.999,-3.999 v -7.998 c 0,-2.21 1.789,-3.999 3.999,-3.999 2.21,0 3.999,1.789 3.999,3.999 v 7.998 c 0,2.21 -1.789,3.999 -3.999,3.999 z"
       id="path4088" /><path
       style="fill:#3a3847"
       d="m 115.976,312.649 c -2.21,0 -3.999,-1.788 -3.999,-3.999 v -7.998 c 0,-2.21 1.789,-3.999 3.999,-3.999 2.21,0 3.999,1.789 3.999,3.999 v 7.998 c 0,2.211 -1.788,3.999 -3.999,3.999 z"
       id="path4090" /><path
       style="fill:#3a3847"
       d="m 139.97,303.37 c -2.21,0 -3.999,-1.78 -3.999,-3.998 v -7.999 c 0,-2.202 1.789,-3.999 3.999,-3.999 2.211,0 3.999,1.797 3.999,3.999 v 7.999 c 0,2.218 -1.788,3.998 -3.999,3.998 z"
       id="path4092" /><path
       style="fill:#3a3847"
       d="m 163.965,491.888 c -1.742,0 -3.343,-1.141 -3.843,-2.905 -0.609,-2.117 0.617,-4.328 2.742,-4.937 l 83.98,-23.995 c 2.14,-0.608 4.334,0.625 4.944,2.75 0.609,2.116 -0.617,4.327 -2.741,4.937 l -83.98,23.994 c -0.368,0.109 -0.743,0.156 -1.102,0.156 z"
       id="path4094" /><path
       style="fill:#3a3847"
       d="m 163.965,491.888 c 0,0 0,0 -0.008,0 -2.203,0 -3.991,-1.797 -3.991,-3.999 0,-2 0.266,-19.73 9.498,-27.119 1.742,-1.374 4.249,-1.094 5.624,0.625 1.375,1.727 1.101,4.241 -0.625,5.624 -5.304,4.241 -6.491,16.512 -6.499,20.87 -0.008,2.21 -1.796,3.999 -3.999,3.999 z"
       id="path4096" /><path
       style="fill:#3a3847"
       d="m 171.963,467.893 c -1.304,0 -2.585,-0.64 -3.351,-1.812 -1.202,-1.858 -0.679,-4.335 1.172,-5.538 l 61.423,-39.99 c 1.844,-1.195 4.327,-0.68 5.53,1.164 1.203,1.858 0.68,4.335 -1.172,5.537 l -61.423,39.991 c -0.672,0.438 -1.429,0.648 -2.179,0.648 z"
       id="path4098" /><path
       style="fill:#3a3847"
       d="m 227.95,315.93 c -2.21,0 -3.999,-1.789 -3.999,-4 V 103.98 c 0,-2.211 1.789,-3.999 3.999,-3.999 2.21,0 3.999,1.788 3.999,3.999 v 207.95 c 0,2.211 -1.789,4 -3.999,4 z"
       id="path4100" /><path
       style="fill:#3a3847"
       d="m 35.995,323.928 c -1.539,0 -3.015,-0.898 -3.671,-2.406 -0.875,-2.023 0.055,-4.382 2.078,-5.265 L 218.358,236.28 c 2.008,-0.875 4.382,0.047 5.265,2.073 0.875,2.023 -0.055,4.382 -2.078,5.261 L 37.589,323.6 c -0.516,0.219 -1.063,0.328 -1.594,0.328 z"
       id="path4102" /><path
       style="fill:#3a3847"
       d="m 266.504,443.977 c -0.32,0 -0.656,-0.039 -0.984,-0.125 -2.141,-0.539 -3.437,-2.718 -2.891,-4.857 1.344,-5.312 2.773,-11.264 4.117,-17.605 6.568,-30.892 13.191,-76.717 13.191,-109.459 0,-2.21 1.789,-3.999 4,-3.999 2.21,0 3.998,1.789 3.998,3.999 0,35.602 -7.201,82.113 -13.363,111.131 -1.375,6.451 -2.82,12.496 -4.194,17.901 -0.461,1.812 -2.086,3.014 -3.874,3.014 z"
       id="path4106" /><path
       style="fill:#3a3847"
       d="m 283.937,107.979 c -2.211,0 -4,-1.789 -4,-3.999 0,-51.016 -9.419,-83.98 -23.994,-83.98 -2.21,0 -3.999,-1.789 -3.999,-3.999 0,-2.21 1.789,-3.999 3.999,-3.999 28.876,0 31.992,64.325 31.992,91.979 0,2.209 -1.788,3.998 -3.998,3.998 z"
       id="path4108" /><path
       style="fill:#3a3847"
       d="m 507.883,347.923 c -0.477,0 -0.968,-0.086 -1.444,-0.266 L 330.488,279.673 290.787,267.77 c -2.117,-0.633 -3.32,-2.858 -2.68,-4.976 0.633,-2.12 2.875,-3.292 4.976,-2.683 l 39.991,12.001 176.255,68.078 c 2.054,0.796 3.085,3.116 2.288,5.17 -0.617,1.594 -2.132,2.563 -3.734,2.563 z"
       id="path4110" /><path
       style="fill:#3a3847"
       d="m 507.883,347.923 c -2.202,0 -3.991,-1.789 -3.999,-3.999 -0.008,-4.343 -1.195,-16.574 -6.514,-20.886 -1.719,-1.391 -1.984,-3.905 -0.594,-5.624 1.391,-1.718 3.913,-1.976 5.623,-0.594 9.217,7.468 9.482,25.119 9.482,27.104 0,2.202 -1.788,3.999 -3.991,3.999 -0.007,0 -0.007,0 -0.007,0 z"
       id="path4112" /><path
       style="fill:#3a3847"
       d="m 499.885,323.928 c -0.852,0 -1.71,-0.266 -2.437,-0.828 L 289.498,163.138 c -1.75,-1.347 -2.078,-3.859 -0.734,-5.608 1.352,-1.758 3.866,-2.074 5.608,-0.734 l 207.95,159.962 c 1.75,1.344 2.078,3.858 0.734,5.608 -0.789,1.031 -1.975,1.562 -3.171,1.562 z"
       id="path4114" /><path
       style="fill:#3a3847"
       d="m 427.902,260.584 c -2.21,0 -3.998,-1.789 -3.998,-3.999 v -32.633 c 0,-2.211 1.788,-3.999 3.998,-3.999 2.211,0 4,1.788 4,3.999 v 32.633 c 0,2.21 -1.789,3.999 -4,3.999 z"
       id="path4116" /><path
       style="fill:#3a3847"
       d="m 403.908,242.107 c -2.21,0 -3.999,-1.788 -3.999,-3.999 v -14.156 c 0,-2.211 1.789,-3.999 3.999,-3.999 2.211,0 4,1.788 4,3.999 v 14.156 c 0,2.211 -1.789,3.999 -4,3.999 z"
       id="path4118" /><path
       style="fill:#3a3847"
       d="m 427.902,227.951 h -23.994 c -2.21,0 -3.999,-1.789 -3.999,-3.999 0,-2.211 1.789,-3.999 3.999,-3.999 h 23.994 c 2.211,0 4,1.788 4,3.999 0,2.21 -1.789,3.999 -4,3.999 z"
       id="path4120" /><path
       style="fill:#3a3847"
       d="m 363.918,211.314 c -2.211,0 -3.999,-1.789 -3.999,-3.999 v -31.353 c 0,-2.21 1.788,-3.999 3.999,-3.999 2.211,0 3.999,1.789 3.999,3.999 v 31.353 c 0,2.21 -1.788,3.999 -3.999,3.999 z"
       id="path4122" /><path
       style="fill:#3a3847"
       d="m 363.918,179.962 h -23.995 c -2.211,0 -3.999,-1.788 -3.999,-3.999 0,-2.21 1.788,-3.999 3.999,-3.999 h 23.994 c 2.211,0 3.999,1.789 3.999,3.999 10e-4,2.21 -1.787,3.999 -3.998,3.999 z"
       id="path4124" /><path
       style="fill:#3a3847"
       d="m 339.923,192.92 c -2.211,0 -3.999,-1.788 -3.999,-3.999 v -12.958 c 0,-2.21 1.788,-3.999 3.999,-3.999 2.21,0 3.999,1.789 3.999,3.999 v 12.958 c 0,2.211 -1.789,3.999 -3.999,3.999 z"
       id="path4126" /><path
       style="fill:#3a3847"
       d="m 419.904,321.928 c -2.21,0 -3.998,-1.789 -3.998,-3.999 v -7.998 c 0,-2.21 1.788,-3.999 3.998,-3.999 2.211,0 4,1.789 4,3.999 v 7.998 c 0,2.21 -1.789,3.999 -4,3.999 z"
       id="path4128" /><path
       style="fill:#3a3847"
       d="m 395.91,312.649 c -2.21,0 -3.999,-1.788 -3.999,-3.999 v -7.998 c 0,-2.21 1.789,-3.999 3.999,-3.999 2.211,0 3.999,1.789 3.999,3.999 v 7.998 c 0,2.211 -1.788,3.999 -3.999,3.999 z"
       id="path4130" /><path
       style="fill:#3a3847"
       d="m 371.916,303.37 c -2.21,0 -3.999,-1.78 -3.999,-3.998 v -7.999 c 0,-2.202 1.789,-3.999 3.999,-3.999 2.211,0 3.999,1.797 3.999,3.999 v 7.999 c 0,2.218 -1.788,3.998 -3.999,3.998 z"
       id="path4132" /><path
       style="fill:#3a3847"
       d="m 347.922,491.888 c -0.359,0 -0.734,-0.047 -1.102,-0.156 l -83.98,-23.994 c -2.124,-0.609 -3.351,-2.82 -2.741,-4.937 0.602,-2.125 2.788,-3.358 4.944,-2.75 l 83.98,23.995 c 2.124,0.608 3.351,2.819 2.741,4.937 -0.5,1.765 -2.1,2.905 -3.842,2.905 z"
       id="path4134" /><path
       style="fill:#3a3847"
       d="m 347.922,491.888 c -2.203,0 -3.991,-1.789 -3.999,-3.999 -0.008,-4.358 -1.195,-16.629 -6.499,-20.87 -1.726,-1.383 -1.999,-3.897 -0.625,-5.624 1.383,-1.719 3.891,-1.999 5.624,-0.625 9.232,7.389 9.498,25.119 9.498,27.119 0,2.202 -1.788,3.999 -3.991,3.999 -0.008,0 -0.008,0 -0.008,0 z"
       id="path4136" /><path
       style="fill:#3a3847"
       d="m 339.923,467.893 c -0.75,0 -1.508,-0.21 -2.18,-0.647 L 276.32,427.255 c -1.851,-1.202 -2.374,-3.679 -1.171,-5.537 1.202,-1.844 3.694,-2.359 5.529,-1.164 l 61.423,39.99 c 1.852,1.203 2.375,3.68 1.172,5.538 -0.765,1.172 -2.045,1.811 -3.35,1.811 z"
       id="path4138" /><path
       style="fill:#3a3847"
       d="m 283.937,315.93 c -2.211,0 -4,-1.789 -4,-4 V 103.98 c 0,-2.211 1.789,-3.999 4,-3.999 2.21,0 3.998,1.788 3.998,3.999 v 207.95 c 0,2.211 -1.788,4 -3.998,4 z"
       id="path4140" /><path
       style="fill:#3a3847"
       d="m 475.891,323.928 c -0.531,0 -1.078,-0.109 -1.594,-0.328 L 290.341,243.615 c -2.023,-0.879 -2.953,-3.237 -2.078,-5.261 0.883,-2.026 3.25,-2.948 5.265,-2.073 l 183.956,79.977 c 2.023,0.883 2.953,3.241 2.078,5.265 -0.656,1.507 -2.133,2.405 -3.671,2.405 z"
       id="path4142" /><path
       style="fill:#3a3847"
       d="m 255.943,499.886 c -2.21,0 -3.999,-1.789 -3.999,-3.999 v -87.979 c 0,-2.21 1.789,-3.999 3.999,-3.999 2.211,0 3.999,1.789 3.999,3.999 v 87.979 c 0,2.21 -1.788,3.999 -3.999,3.999 z"
       id="path4146" /></g><g
     transform="translate(-3.9050213e-4,7.9990011)"
     id="g4150" /><g
     transform="translate(-3.9050213e-4,7.9990011)"
     id="g4152" /><g
     transform="translate(-3.9050213e-4,7.9990011)"
     id="g4154" /><g
     transform="translate(-3.9050213e-4,7.9990011)"
     id="g4156" /><g
     transform="translate(-3.9050213e-4,7.9990011)"
     id="g4158" /><g
     transform="translate(-3.9050213e-4,7.9990011)"
     id="g4160" /><g
     transform="translate(-3.9050213e-4,7.9990011)"
     id="g4162" /><g
     transform="translate(-3.9050213e-4,7.9990011)"
     id="g4164" /><g
     transform="translate(-3.9050213e-4,7.9990011)"
     id="g4166" /><g
     transform="translate(-3.9050213e-4,7.9990011)"
     id="g4168" /><g
     transform="translate(-3.9050213e-4,7.9990011)"
     id="g4170" /><g
     transform="translate(-3.9050213e-4,7.9990011)"
     id="g4172" /><g
     transform="translate(-3.9050213e-4,7.9990011)"
     id="g4174" /><g
     transform="translate(-3.9050213e-4,7.9990011)"
     id="g4176" /><g
     transform="translate(-3.9050213e-4,7.9990011)"
     id="g4178" /></svg>
